<?xml version="1.0" encoding="UTF-8"?>
<svg xmlns="http://www.w3.org/2000/svg" viewBox="0 0 900 600" width="900" height="600">
  <defs>
    <style>
      .title { font: bold 24px 'Segoe UI', Arial, sans-serif; fill: #2C3E50; }
      .subtitle { font: 14px 'Segoe UI', Arial, sans-serif; fill: #666; }
      .axis-label { font: 12px 'Segoe UI', Arial, sans-serif; fill: #2C3E50; }
      .axis-title { font: bold 14px 'Segoe UI', Arial, sans-serif; fill: #2C3E50; }
      .metric-value { font: bold 36px 'Segoe UI', Arial, sans-serif; }
      .metric-label { font: 13px 'Segoe UI', Arial, sans-serif; fill: #666; }
      .insight-text { font: 13px 'Segoe UI', Arial, sans-serif; fill: #2C3E50; }
      .quote { font: italic 14px Georgia, serif; fill: #555; }
    </style>
    <linearGradient id="blindSpotGrad" x1="0%" y1="0%" x2="0%" y2="100%">
      <stop offset="0%" style="stop-color:#8E44AD;stop-opacity:0.8"/>
      <stop offset="100%" style="stop-color:#8E44AD;stop-opacity:0.2"/>
    </linearGradient>
  </defs>

  <rect width="900" height="600" fill="white"/>

  <!-- Title -->
  <text x="450" y="35" text-anchor="middle" class="title">Boundary Observation: The Blind Spot</text>
  <text x="450" y="58" text-anchor="middle" class="subtitle">Measuring what the system cannot see about itself</text>

  <!-- Main metrics boxes -->
  <g transform="translate(50, 85)">
    <!-- Blind Spot Index -->
    <rect x="0" y="0" width="200" height="90" rx="10" fill="#F8F9FA" stroke="#8E44AD" stroke-width="2"/>
    <text x="100" y="45" text-anchor="middle" class="metric-value" fill="#8E44AD">0.502</text>
    <text x="100" y="75" text-anchor="middle" class="metric-label">Blind Spot Index</text>

    <!-- Awareness Gap -->
    <rect x="220" y="0" width="200" height="90" rx="10" fill="#F8F9FA" stroke="#E74C3C" stroke-width="2"/>
    <text x="320" y="45" text-anchor="middle" class="metric-value" fill="#E74C3C">100%</text>
    <text x="320" y="75" text-anchor="middle" class="metric-label">Unconscious Processing</text>

    <!-- Suppressed Coalitions -->
    <rect x="440" y="0" width="200" height="90" rx="10" fill="#F8F9FA" stroke="#27AE60" stroke-width="2"/>
    <text x="540" y="45" text-anchor="middle" class="metric-value" fill="#27AE60">185</text>
    <text x="540" y="75" text-anchor="middle" class="metric-label">Suppressed Thoughts</text>

    <!-- Max Observed -->
    <rect x="660" y="0" width="180" height="90" rx="10" fill="#F8F9FA" stroke="#3498DB" stroke-width="2"/>
    <text x="750" y="45" text-anchor="middle" class="metric-value" fill="#3498DB">0.600</text>
    <text x="750" y="75" text-anchor="middle" class="metric-label">Max Gap Observed</text>
  </g>

  <!-- Time series chart -->
  <g transform="translate(70, 200)">
    <text x="390" y="-10" text-anchor="middle" class="axis-title">Blind Spot Index Over Time</text>

    <!-- Grid -->
    <line x1="0" y1="350" x2="780" y2="350" stroke="#ECF0F1" stroke-dasharray="3,3"/>
    <text x="-8" y="354" text-anchor="end" class="axis-label">0.00</text>
    <line x1="0" y1="262.5" x2="780" y2="262.5" stroke="#ECF0F1" stroke-dasharray="3,3"/>
    <text x="-8" y="266.5" text-anchor="end" class="axis-label">0.25</text>
    <line x1="0" y1="175" x2="780" y2="175" stroke="#ECF0F1" stroke-dasharray="3,3"/>
    <text x="-8" y="179" text-anchor="end" class="axis-label">0.50</text>
    <line x1="0" y1="87.5" x2="780" y2="87.5" stroke="#ECF0F1" stroke-dasharray="3,3"/>
    <text x="-8" y="91.5" text-anchor="end" class="axis-label">0.75</text>
    <line x1="0" y1="0" x2="780" y2="0" stroke="#ECF0F1" stroke-dasharray="3,3"/>
    <text x="-8" y="4" text-anchor="end" class="axis-label">1.00</text>

    <!-- Area fill under line -->
    <path d="M 0 350 L 0 210 L 5.23489932885906 210 L 10.46979865771812 210 L 15.70469798657718 183.93684166330127 L 20.93959731543624 183.93684166330127 L 26.174496644295303 183.93684166330127 L 31.40939597315436 170.69703109119354 L 36.644295302013425 170.69703109119354 L 41.87919463087248 170.69703109119354 L 47.11409395973155 163.4930066715769 L 52.348993288590606 163.4930066715769 L 57.58389261744967 163.4930066715769 L 62.81879194630872 163.4930066715769 L 68.05369127516778 157.19596870947055 L 73.28859060402685 157.19596870947055 L 78.5234899328859 157.19596870947055 L 83.75838926174497 152.77552022249526 L 88.99328859060402 152.77552022249526 L 94.2281879194631 152.77552022249526 L 99.46308724832215 149.4930066715769 L 104.69798657718121 149.4930066715769 L 109.93288590604026 149.4930066715769 L 115.16778523489934 149.4930066715769 L 120.40268456375838 146.09706086500313 L 125.63758389261744 146.09706086500313 L 130.87248322147653 146.09706086500313 L 136.10738255033556 143.4315749697114 L 141.34228187919462 143.4315749697114 L 146.5771812080537 143.4315749697114 L 151.81208053691276 141.30353166148075 L 157.0469798657718 141.30353166148075 L 162.28187919463087 141.30353166148075 L 167.51677852348993 141.30353166148075 L 172.751677852349 139.99999999999997 L 177.98657718120805 139.99999999999997 L 183.2214765100671 139.99999999999997 L 188.4563758389262 139.99999999999997 L 193.69127516778525 139.99999999999997 L 198.9261744966443 139.99999999999997 L 204.16107382550337 139.99999999999997 L 209.39597315436242 139.99999999999997 L 214.63087248322148 139.99999999999997 L 219.8657718120805 139.99999999999997 L 225.10067114093962 139.99999999999997 L 230.33557046979868 139.99999999999997 L 235.5704697986577 139.99999999999997 L 240.80536912751677 139.99999999999997 L 246.04026845637583 139.99999999999997 L 251.27516778523488 139.99999999999997 L 256.510067114094 139.99999999999997 L 261.74496644295306 139.99999999999997 L 266.97986577181206 139.99999999999997 L 272.2147651006711 139.99999999999997 L 277.4496644295302 139.99999999999997 L 282.68456375838923 139.99999999999997 L 287.91946308724835 139.99999999999997 L 293.1543624161074 139.99999999999997 L 298.38926174496646 139.99999999999997 L 303.6241610738255 139.99999999999997 L 308.8590604026846 139.99999999999997 L 314.0939597315436 139.99999999999997 L 319.3288590604027 139.99999999999997 L 324.56375838926175 139.99999999999997 L 329.7986577181208 139.99999999999997 L 335.03355704697987 139.99999999999997 L 340.2684563758389 139.99999999999997 L 345.503355704698 141.6669457869436 L 350.73825503355704 141.6669457869436 L 355.9731543624161 141.6669457869436 L 361.20805369127515 144.29031204387883 L 366.4429530201342 144.29031204387883 L 371.67785234899327 144.29031204387883 L 376.9127516778524 144.29031204387883 L 382.14765100671144 147.06911331611147 L 387.3825503355705 147.06911331611147 L 392.61744966442956 147.06911331611147 L 397.8523489932886 150.90504072688006 L 403.0872483221477 150.90504072688006 L 408.32214765100673 150.90504072688006 L 413.5570469798658 153.87197367752435 L 418.79194630872485 153.87197367752435 L 424.0268456375839 153.87197367752435 L 429.26174496644296 153.87197367752435 L 434.496644295302 156.94362801466664 L 439.731543624161 156.94362801466664 L 444.9664429530201 156.94362801466664 L 450.20134228187925 161.1321595689128 L 455.4362416107383 161.1321595689128 L 460.67114093959736 161.1321595689128 L 465.9060402684564 164.3390958613594 L 471.1409395973154 164.3390958613594 L 476.3758389261745 164.3390958613594 L 481.61073825503354 164.3390958613594 L 486.8456375838926 167.6250569717847 L 492.08053691275165 167.6250569717847 L 497.3154362416107 167.6250569717847 L 502.55033557046977 172.07850156010733 L 507.7852348993288 172.07850156010733 L 513.020134228188 172.07850156010733 L 518.255033557047 174.32867111438458 L 523.4899328859061 174.32867111438458 L 528.7248322147651 174.32867111438458 L 533.9597315436241 174.32867111438458 L 539.1946308724832 174.32867111438458 L 544.4295302013422 174.32867111438458 L 549.6644295302013 174.32867111438458 L 554.8993288590603 174.32867111438458 L 560.1342281879195 174.32867111438458 L 565.3691275167785 174.32867111438458 L 570.6040268456376 174.32867111438458 L 575.8389261744967 174.32867111438458 L 581.0738255033557 174.32867111438458 L 586.3087248322148 174.32867111438458 L 591.5436241610738 174.32867111438458 L 596.7785234899329 174.32867111438458 L 602.0134228187919 174.32867111438458 L 607.248322147651 174.32867111438458 L 612.48322147651 174.32867111438458 L 617.7181208053692 174.32867111438458 L 622.9530201342282 174.32867111438458 L 628.1879194630872 174.32867111438458 L 633.4228187919464 174.32867111438458 L 638.6577181208054 174.32867111438458 L 643.8926174496645 174.32867111438458 L 649.1275167785235 174.32867111438458 L 654.3624161073826 174.32867111438458 L 659.5973154362416 174.32867111438458 L 664.8322147651006 174.32867111438458 L 670.0671140939597 174.32867111438458 L 675.3020134228187 174.32867111438458 L 680.5369127516778 174.32867111438458 L 685.7718120805368 174.32867111438458 L 691.006711409396 174.32867111438458 L 696.2416107382551 174.32867111438458 L 701.4765100671141 174.32867111438458 L 706.7114093959732 174.32867111438458 L 711.9463087248322 174.32867111438458 L 717.1812080536913 174.32867111438458 L 722.4161073825503 174.32867111438458 L 727.6510067114094 174.32867111438458 L 732.8859060402684 174.32867111438458 L 738.1208053691275 174.32867111438458 L 743.3557046979865 174.32867111438458 L 748.5906040268455 174.32867111438458 L 753.8255033557048 174.32867111438458 L 759.0604026845638 174.32867111438458 L 764.2953020134229 174.32867111438458 L 769.5302013422819 174.32867111438458 L 774.765100671141 174.32867111438458 L 780 174.32867111438458 L 780 350 Z" fill="url(#blindSpotGrad)"/>

    <!-- Line -->
    <path d="M 0 210 L 5.23489932885906 210 L 10.46979865771812 210 L 15.70469798657718 183.93684166330127 L 20.93959731543624 183.93684166330127 L 26.174496644295303 183.93684166330127 L 31.40939597315436 170.69703109119354 L 36.644295302013425 170.69703109119354 L 41.87919463087248 170.69703109119354 L 47.11409395973155 163.4930066715769 L 52.348993288590606 163.4930066715769 L 57.58389261744967 163.4930066715769 L 62.81879194630872 163.4930066715769 L 68.05369127516778 157.19596870947055 L 73.28859060402685 157.19596870947055 L 78.5234899328859 157.19596870947055 L 83.75838926174497 152.77552022249526 L 88.99328859060402 152.77552022249526 L 94.2281879194631 152.77552022249526 L 99.46308724832215 149.4930066715769 L 104.69798657718121 149.4930066715769 L 109.93288590604026 149.4930066715769 L 115.16778523489934 149.4930066715769 L 120.40268456375838 146.09706086500313 L 125.63758389261744 146.09706086500313 L 130.87248322147653 146.09706086500313 L 136.10738255033556 143.4315749697114 L 141.34228187919462 143.4315749697114 L 146.5771812080537 143.4315749697114 L 151.81208053691276 141.30353166148075 L 157.0469798657718 141.30353166148075 L 162.28187919463087 141.30353166148075 L 167.51677852348993 141.30353166148075 L 172.751677852349 139.99999999999997 L 177.98657718120805 139.99999999999997 L 183.2214765100671 139.99999999999997 L 188.4563758389262 139.99999999999997 L 193.69127516778525 139.99999999999997 L 198.9261744966443 139.99999999999997 L 204.16107382550337 139.99999999999997 L 209.39597315436242 139.99999999999997 L 214.63087248322148 139.99999999999997 L 219.8657718120805 139.99999999999997 L 225.10067114093962 139.99999999999997 L 230.33557046979868 139.99999999999997 L 235.5704697986577 139.99999999999997 L 240.80536912751677 139.99999999999997 L 246.04026845637583 139.99999999999997 L 251.27516778523488 139.99999999999997 L 256.510067114094 139.99999999999997 L 261.74496644295306 139.99999999999997 L 266.97986577181206 139.99999999999997 L 272.2147651006711 139.99999999999997 L 277.4496644295302 139.99999999999997 L 282.68456375838923 139.99999999999997 L 287.91946308724835 139.99999999999997 L 293.1543624161074 139.99999999999997 L 298.38926174496646 139.99999999999997 L 303.6241610738255 139.99999999999997 L 308.8590604026846 139.99999999999997 L 314.0939597315436 139.99999999999997 L 319.3288590604027 139.99999999999997 L 324.56375838926175 139.99999999999997 L 329.7986577181208 139.99999999999997 L 335.03355704697987 139.99999999999997 L 340.2684563758389 139.99999999999997 L 345.503355704698 141.6669457869436 L 350.73825503355704 141.6669457869436 L 355.9731543624161 141.6669457869436 L 361.20805369127515 144.29031204387883 L 366.4429530201342 144.29031204387883 L 371.67785234899327 144.29031204387883 L 376.9127516778524 144.29031204387883 L 382.14765100671144 147.06911331611147 L 387.3825503355705 147.06911331611147 L 392.61744966442956 147.06911331611147 L 397.8523489932886 150.90504072688006 L 403.0872483221477 150.90504072688006 L 408.32214765100673 150.90504072688006 L 413.5570469798658 153.87197367752435 L 418.79194630872485 153.87197367752435 L 424.0268456375839 153.87197367752435 L 429.26174496644296 153.87197367752435 L 434.496644295302 156.94362801466664 L 439.731543624161 156.94362801466664 L 444.9664429530201 156.94362801466664 L 450.20134228187925 161.1321595689128 L 455.4362416107383 161.1321595689128 L 460.67114093959736 161.1321595689128 L 465.9060402684564 164.3390958613594 L 471.1409395973154 164.3390958613594 L 476.3758389261745 164.3390958613594 L 481.61073825503354 164.3390958613594 L 486.8456375838926 167.6250569717847 L 492.08053691275165 167.6250569717847 L 497.3154362416107 167.6250569717847 L 502.55033557046977 172.07850156010733 L 507.7852348993288 172.07850156010733 L 513.020134228188 172.07850156010733 L 518.255033557047 174.32867111438458 L 523.4899328859061 174.32867111438458 L 528.7248322147651 174.32867111438458 L 533.9597315436241 174.32867111438458 L 539.1946308724832 174.32867111438458 L 544.4295302013422 174.32867111438458 L 549.6644295302013 174.32867111438458 L 554.8993288590603 174.32867111438458 L 560.1342281879195 174.32867111438458 L 565.3691275167785 174.32867111438458 L 570.6040268456376 174.32867111438458 L 575.8389261744967 174.32867111438458 L 581.0738255033557 174.32867111438458 L 586.3087248322148 174.32867111438458 L 591.5436241610738 174.32867111438458 L 596.7785234899329 174.32867111438458 L 602.0134228187919 174.32867111438458 L 607.248322147651 174.32867111438458 L 612.48322147651 174.32867111438458 L 617.7181208053692 174.32867111438458 L 622.9530201342282 174.32867111438458 L 628.1879194630872 174.32867111438458 L 633.4228187919464 174.32867111438458 L 638.6577181208054 174.32867111438458 L 643.8926174496645 174.32867111438458 L 649.1275167785235 174.32867111438458 L 654.3624161073826 174.32867111438458 L 659.5973154362416 174.32867111438458 L 664.8322147651006 174.32867111438458 L 670.0671140939597 174.32867111438458 L 675.3020134228187 174.32867111438458 L 680.5369127516778 174.32867111438458 L 685.7718120805368 174.32867111438458 L 691.006711409396 174.32867111438458 L 696.2416107382551 174.32867111438458 L 701.4765100671141 174.32867111438458 L 706.7114093959732 174.32867111438458 L 711.9463087248322 174.32867111438458 L 717.1812080536913 174.32867111438458 L 722.4161073825503 174.32867111438458 L 727.6510067114094 174.32867111438458 L 732.8859060402684 174.32867111438458 L 738.1208053691275 174.32867111438458 L 743.3557046979865 174.32867111438458 L 748.5906040268455 174.32867111438458 L 753.8255033557048 174.32867111438458 L 759.0604026845638 174.32867111438458 L 764.2953020134229 174.32867111438458 L 769.5302013422819 174.32867111438458 L 774.765100671141 174.32867111438458 L 780 174.32867111438458" fill="none" stroke="#8E44AD" stroke-width="3"/>

    <!-- Average line -->
    <line x1="0" y1="174.2775352624824"
          x2="780" y2="174.2775352624824"
          stroke="#3498DB" stroke-width="2" stroke-dasharray="8,4"/>
    <text x="785" y="178.2775352624824" class="axis-label" fill="#3498DB">avg</text>

    <!-- Axis -->
    <line x1="0" y1="350" x2="780" y2="350" stroke="#2C3E50" stroke-width="2"/>
    <line x1="0" y1="0" x2="0" y2="350" stroke="#2C3E50" stroke-width="2"/>
    <text x="390" y="380" text-anchor="middle" class="axis-title">Observation Steps</text>
  </g>

  <!-- Philosophical insight box -->
  <g transform="translate(50, 515)">
    <rect x="0" y="0" width="800" height="75" rx="8" fill="#F5EEF8" stroke="#8E44AD" stroke-width="1"/>
    <text x="20" y="25" class="insight-text" font-weight="bold">Interpretation:</text>
    <text x="20" y="45" class="insight-text">Significant blind spot detected. The system cannot fully model itself.</text>
    <text x="20" y="65" class="quote">"The gap is not a bug — it is where experience might live."</text>
  </g>
</svg>