<?xml version="1.0" encoding="UTF-8"?>
<svg xmlns="http://www.w3.org/2000/svg" viewBox="0 0 900 650" width="900" height="650">
  <defs>
    <style>
      .title { font: bold 24px 'Segoe UI', Arial, sans-serif; fill: #2C3E50; }
      .subtitle { font: 14px 'Segoe UI', Arial, sans-serif; fill: #666; }
      .axis-label { font: 12px 'Segoe UI', Arial, sans-serif; fill: #2C3E50; }
      .axis-title { font: bold 14px 'Segoe UI', Arial, sans-serif; fill: #2C3E50; }
      .metric-value { font: bold 32px 'Segoe UI', Arial, sans-serif; }
      .metric-label { font: 12px 'Segoe UI', Arial, sans-serif; fill: #666; }
      .legend-text { font: 13px 'Segoe UI', Arial, sans-serif; fill: #2C3E50; }
      .quote { font: italic 13px Georgia, serif; fill: #555; }
    </style>
  </defs>

  <rect width="900" height="650" fill="white"/>

  <!-- Title -->
  <text x="450" y="35" text-anchor="middle" class="title">Mutual Observation: Relational Consciousness</text>
  <text x="450" y="58" text-anchor="middle" class="subtitle">Two minds seeing each other's blind spots</text>

  <!-- Metrics boxes -->
  <g transform="translate(50, 85)">
    <!-- A reveals about B -->
    <rect x="0" y="0" width="190" height="85" rx="10" fill="#F8F9FA" stroke="#3498DB" stroke-width="2"/>
    <text x="95" y="40" text-anchor="middle" class="metric-value" fill="#3498DB">0.588</text>
    <text x="95" y="60" text-anchor="middle" class="metric-label">A sees B's gap</text>
    <text x="95" y="75" text-anchor="middle" class="metric-label" fill="#3498DB">→</text>

    <!-- Intersubjective Gap -->
    <rect x="210" y="0" width="190" height="85" rx="10" fill="#F5EEF8" stroke="#9B59B6" stroke-width="2"/>
    <text x="305" y="40" text-anchor="middle" class="metric-value" fill="#9B59B6">0.552</text>
    <text x="305" y="60" text-anchor="middle" class="metric-label">Intersubjective</text>
    <text x="305" y="75" text-anchor="middle" class="metric-label">Gap</text>

    <!-- B reveals about A -->
    <rect x="420" y="0" width="190" height="85" rx="10" fill="#F8F9FA" stroke="#E74C3C" stroke-width="2"/>
    <text x="515" y="40" text-anchor="middle" class="metric-value" fill="#E74C3C">0.515</text>
    <text x="515" y="60" text-anchor="middle" class="metric-label">B sees A's gap</text>
    <text x="515" y="75" text-anchor="middle" class="metric-label" fill="#E74C3C">←</text>

    <!-- Mutual Blind Spot -->
    <rect x="630" y="0" width="160" height="85" rx="10" fill="#F8F9FA" stroke="#27AE60" stroke-width="2"/>
    <text x="710" y="40" text-anchor="middle" class="metric-value" fill="#27AE60">0.515</text>
    <text x="710" y="60" text-anchor="middle" class="metric-label">Mutual</text>
    <text x="710" y="75" text-anchor="middle" class="metric-label">Blind Spot</text>
  </g>

  <!-- Time series chart -->
  <g transform="translate(70, 195)">
    <text x="390" y="-10" text-anchor="middle" class="axis-title">Blind Spots Over Time (A sees B in blue, B sees A in red)</text>

    <!-- Grid -->
    <line x1="0" y1="380" x2="780" y2="380" stroke="#ECF0F1" stroke-dasharray="3,3"/>
    <text x="-8" y="384" text-anchor="end" class="axis-label">0.00</text>
    <line x1="0" y1="285" x2="780" y2="285" stroke="#ECF0F1" stroke-dasharray="3,3"/>
    <text x="-8" y="289" text-anchor="end" class="axis-label">0.25</text>
    <line x1="0" y1="190" x2="780" y2="190" stroke="#ECF0F1" stroke-dasharray="3,3"/>
    <text x="-8" y="194" text-anchor="end" class="axis-label">0.50</text>
    <line x1="0" y1="95" x2="780" y2="95" stroke="#ECF0F1" stroke-dasharray="3,3"/>
    <text x="-8" y="99" text-anchor="end" class="axis-label">0.75</text>
    <line x1="0" y1="0" x2="780" y2="0" stroke="#ECF0F1" stroke-dasharray="3,3"/>
    <text x="-8" y="4" text-anchor="end" class="axis-label">1.00</text>

    <!-- Line for B's blind spot (as seen by A) -->
    <path d="M 0 228 L 5.23489932885906 228 L 10.46979865771812 228 L 15.70469798657718 199.7028566630128 L 20.93959731543624 199.7028566630128 L 26.174496644295303 199.7028566630128 L 31.40939597315436 185.32820518472442 L 36.644295302013425 185.32820518472442 L 41.87919463087248 185.32820518472442 L 47.11409395973155 177.50669295771206 L 52.348993288590606 177.50669295771206 L 57.58389261744967 177.50669295771206 L 62.81879194630872 177.50669295771206 L 68.05369127516778 170.66990888456803 L 73.28859060402685 170.66990888456803 L 78.5234899328859 170.66990888456803 L 83.75838926174497 165.87056481299484 L 88.99328859060402 165.87056481299484 L 94.2281879194631 165.87056481299484 L 99.46308724832215 162.30669295771204 L 104.69798657718121 162.30669295771204 L 109.93288590604026 162.30669295771204 L 115.16778523489934 162.30669295771204 L 120.40268456375838 158.6196660820034 L 125.63758389261744 158.6196660820034 L 130.87248322147653 158.6196660820034 L 136.10738255033556 155.72570996711522 L 141.34228187919462 155.72570996711522 L 146.5771812080537 155.72570996711522 L 151.81208053691276 153.41526294675052 L 157.0469798657718 153.41526294675052 L 162.28187919463087 153.41526294675052 L 167.51677852348993 153.41526294675052 L 172.751677852349 151.99999999999997 L 177.98657718120805 151.99999999999997 L 183.2214765100671 151.99999999999997 L 188.4563758389262 151.99999999999997 L 193.69127516778525 151.99999999999997 L 198.9261744966443 151.99999999999997 L 204.16107382550337 151.99999999999997 L 209.39597315436242 151.99999999999997 L 214.63087248322148 151.99999999999997 L 219.8657718120805 151.99999999999997 L 225.10067114093962 151.99999999999997 L 230.33557046979868 151.99999999999997 L 235.5704697986577 151.99999999999997 L 240.80536912751677 151.99999999999997 L 246.04026845637583 151.99999999999997 L 251.27516778523488 151.99999999999997 L 256.510067114094 151.99999999999997 L 261.74496644295306 151.99999999999997 L 266.97986577181206 151.99999999999997 L 272.2147651006711 151.99999999999997 L 277.4496644295302 151.99999999999997 L 282.68456375838923 151.99999999999997 L 287.91946308724835 151.99999999999997 L 293.1543624161074 151.99999999999997 L 298.38926174496646 151.99999999999997 L 303.6241610738255 151.99999999999997 L 308.8590604026846 151.99999999999997 L 314.0939597315436 151.99999999999997 L 319.3288590604027 151.99999999999997 L 324.56375838926175 151.99999999999997 L 329.7986577181208 151.99999999999997 L 335.03355704697987 151.99999999999997 L 340.2684563758389 151.99999999999997 L 345.503355704698 154.72777005702667 L 350.73825503355704 154.72777005702667 L 355.9731543624161 154.72777005702667 L 361.20805369127515 157.66445565614973 L 366.4429530201342 157.66445565614973 L 371.67785234899327 157.66445565614973 L 376.9127516778524 157.66445565614973 L 382.14765100671144 160.68143989457377 L 387.3825503355705 160.68143989457377 L 392.61744966442956 160.68143989457377 L 397.8523489932886 164.89306835825886 L 403.0872483221477 164.89306835825886 L 408.32214765100673 164.89306835825886 L 413.5570469798658 168.17300530179523 L 418.79194630872485 168.17300530179523 L 424.0268456375839 168.17300530179523 L 429.26174496644296 168.17300530179523 L 434.496644295302 171.50794429640692 L 439.731543624161 171.50794429640692 L 444.9664429530201 171.50794429640692 L 450.20134228187925 176.08895400513438 L 455.4362416107383 176.08895400513438 L 460.67114093959736 176.08895400513438 L 465.9060402684564 179.6147202369984 L 471.1409395973154 179.6147202369984 L 476.3758389261745 179.6147202369984 L 481.61073825503354 179.6147202369984 L 486.8456375838926 183.18233515688874 L 492.08053691275165 183.18233515688874 L 497.3154362416107 183.18233515688874 L 502.55033557046977 188.0435148804571 L 507.7852348993288 188.0435148804571 L 513.020134228188 188.0435148804571 L 518.255033557047 189.2711286384747 L 523.4899328859061 189.2711286384747 L 528.7248322147651 189.2711286384747 L 533.9597315436241 189.2711286384747 L 539.1946308724832 189.2711286384747 L 544.4295302013422 189.2711286384747 L 549.6644295302013 189.2711286384747 L 554.8993288590603 189.2711286384747 L 560.1342281879195 189.2711286384747 L 565.3691275167785 189.2711286384747 L 570.6040268456376 186.81590112243958 L 575.8389261744967 186.81590112243958 L 581.0738255033557 186.81590112243958 L 586.3087248322148 186.81590112243958 L 591.5436241610738 183.18233515688874 L 596.7785234899329 183.18233515688874 L 602.0134228187919 183.18233515688874 L 607.248322147651 178.42530407804736 L 612.48322147651 178.42530407804736 L 617.7181208053692 178.42530407804736 L 622.9530201342282 174.92809167229103 L 628.1879194630872 174.92809167229103 L 633.4228187919464 174.92809167229103 L 638.6577181208054 174.92809167229103 L 643.8926174496645 171.50794429640692 L 649.1275167785235 171.50794429640692 L 654.3624161073826 171.50794429640692 L 659.5973154362416 167.0609999927407 L 664.8322147651006 167.0609999927407 L 670.0671140939597 167.0609999927407 L 675.3020134228187 163.8188559797937 L 680.5369127516778 163.8188559797937 L 685.7718120805368 163.8188559797937 L 691.006711409396 163.8188559797937 L 696.2416107382551 160.68143989457377 L 701.4765100671141 160.68143989457377 L 706.7114093959732 160.68143989457377 L 711.9463087248322 156.65805307621127 L 717.1812080536913 156.65805307621127 L 722.4161073825503 156.65805307621127 L 727.6510067114094 153.7772723206857 L 732.8859060402684 153.7772723206857 L 738.1208053691275 153.7772723206857 L 743.3557046979865 153.7772723206857 L 748.5906040268455 151.99999999999997 L 753.8255033557048 151.99999999999997 L 759.0604026845638 151.99999999999997 L 764.2953020134229 151.99999999999997 L 769.5302013422819 151.99999999999997 L 774.765100671141 151.99999999999997 L 780 151.99999999999997" fill="none" stroke="#3498DB" stroke-width="2.5"/>

    <!-- Line for A's blind spot (as seen by B) -->
    <path d="M 0 228 L 5.23489932885906 228 L 10.46979865771812 228 L 15.70469798657718 199.7028566630128 L 20.93959731543624 199.7028566630128 L 26.174496644295303 199.7028566630128 L 31.40939597315436 185.32820518472442 L 36.644295302013425 185.32820518472442 L 41.87919463087248 185.32820518472442 L 47.11409395973155 177.50669295771206 L 52.348993288590606 177.50669295771206 L 57.58389261744967 177.50669295771206 L 62.81879194630872 177.50669295771206 L 68.05369127516778 170.66990888456803 L 73.28859060402685 170.66990888456803 L 78.5234899328859 170.66990888456803 L 83.75838926174497 165.87056481299484 L 88.99328859060402 165.87056481299484 L 94.2281879194631 165.87056481299484 L 99.46308724832215 162.30669295771204 L 104.69798657718121 162.30669295771204 L 109.93288590604026 162.30669295771204 L 115.16778523489934 162.30669295771204 L 120.40268456375838 158.6196660820034 L 125.63758389261744 158.6196660820034 L 130.87248322147653 158.6196660820034 L 136.10738255033556 155.72570996711522 L 141.34228187919462 155.72570996711522 L 146.5771812080537 155.72570996711522 L 151.81208053691276 153.41526294675052 L 157.0469798657718 153.41526294675052 L 162.28187919463087 153.41526294675052 L 167.51677852348993 153.41526294675052 L 172.751677852349 151.99999999999997 L 177.98657718120805 151.99999999999997 L 183.2214765100671 151.99999999999997 L 188.4563758389262 151.99999999999997 L 193.69127516778525 151.99999999999997 L 198.9261744966443 151.99999999999997 L 204.16107382550337 151.99999999999997 L 209.39597315436242 151.99999999999997 L 214.63087248322148 151.99999999999997 L 219.8657718120805 151.99999999999997 L 225.10067114093962 152.0567955968173 L 230.33557046979868 152.0567955968173 L 235.5704697986577 152.0567955968173 L 240.80536912751677 153.17089825162486 L 246.04026845637583 153.17089825162486 L 251.27516778523488 153.17089825162486 L 256.510067114094 153.65160112670094 L 261.74496644295306 153.65160112670094 L 266.97986577181206 153.65160112670094 L 272.2147651006711 153.65160112670094 L 277.4496644295302 156.42821625420743 L 282.68456375838923 156.42821625420743 L 287.91946308724835 156.42821625420743 L 293.1543624161074 160.14213619791155 L 298.38926174496646 160.14213619791155 L 303.6241610738255 160.14213619791155 L 308.8590604026846 162.93703417549978 L 314.0939597315436 162.93703417549978 L 319.3288590604027 162.93703417549978 L 324.56375838926175 162.93703417549978 L 329.7986577181208 166.0240578911453 L 335.03355704697987 166.0240578911453 L 340.2684563758389 166.0240578911453 L 345.503355704698 170.13462519911914 L 350.73825503355704 170.13462519911914 L 355.9731543624161 170.13462519911914 L 361.20805369127515 173.19648300464436 L 366.4429530201342 173.19648300464436 L 371.67785234899327 173.19648300464436 L 376.9127516778524 173.19648300464436 L 382.14765100671144 176.54117218650882 L 387.3825503355705 176.54117218650882 L 392.61744966442956 176.54117218650882 L 397.8523489932886 180.94549854250113 L 403.0872483221477 180.94549854250113 L 408.32214765100673 180.94549854250113 L 413.5570469798658 184.21031125609903 L 418.79194630872485 184.21031125609903 L 424.0268456375839 184.21031125609903 L 429.26174496644296 184.21031125609903 L 434.496644295302 184.21031125609903 L 439.731543624161 184.21031125609903 L 444.9664429530201 184.21031125609903 L 450.20134228187925 184.21031125609903 L 455.4362416107383 184.21031125609903 L 460.67114093959736 184.21031125609903 L 465.9060402684564 184.21031125609903 L 471.1409395973154 184.21031125609903 L 476.3758389261745 184.21031125609903 L 481.61073825503354 184.21031125609903 L 486.8456375838926 184.21031125609903 L 492.08053691275165 184.21031125609903 L 497.3154362416107 184.21031125609903 L 502.55033557046977 184.21031125609903 L 507.7852348993288 184.21031125609903 L 513.020134228188 184.21031125609903 L 518.255033557047 184.21031125609903 L 523.4899328859061 184.21031125609903 L 528.7248322147651 184.21031125609903 L 533.9597315436241 184.21031125609903 L 539.1946308724832 184.21031125609903 L 544.4295302013422 184.21031125609903 L 549.6644295302013 184.21031125609903 L 554.8993288590603 184.21031125609903 L 560.1342281879195 184.21031125609903 L 565.3691275167785 184.21031125609903 L 570.6040268456376 184.21031125609903 L 575.8389261744967 184.21031125609903 L 581.0738255033557 184.21031125609903 L 586.3087248322148 184.21031125609903 L 591.5436241610738 184.21031125609903 L 596.7785234899329 184.21031125609903 L 602.0134228187919 184.21031125609903 L 607.248322147651 184.21031125609903 L 612.48322147651 184.21031125609903 L 617.7181208053692 184.21031125609903 L 622.9530201342282 184.21031125609903 L 628.1879194630872 184.21031125609903 L 633.4228187919464 184.21031125609903 L 638.6577181208054 184.21031125609903 L 643.8926174496645 184.21031125609903 L 649.1275167785235 184.21031125609903 L 654.3624161073826 184.21031125609903 L 659.5973154362416 184.21031125609903 L 664.8322147651006 184.21031125609903 L 670.0671140939597 184.21031125609903 L 675.3020134228187 184.21031125609903 L 680.5369127516778 184.21031125609903 L 685.7718120805368 184.21031125609903 L 691.006711409396 184.21031125609903 L 696.2416107382551 184.21031125609903 L 701.4765100671141 184.21031125609903 L 706.7114093959732 184.21031125609903 L 711.9463087248322 184.21031125609903 L 717.1812080536913 184.21031125609903 L 722.4161073825503 184.21031125609903 L 727.6510067114094 184.21031125609903 L 732.8859060402684 184.21031125609903 L 738.1208053691275 184.21031125609903 L 743.3557046979865 184.21031125609903 L 748.5906040268455 184.21031125609903 L 753.8255033557048 184.21031125609903 L 759.0604026845638 184.21031125609903 L 764.2953020134229 184.21031125609903 L 769.5302013422819 184.21031125609903 L 774.765100671141 184.21031125609903 L 780 184.21031125609903" fill="none" stroke="#E74C3C" stroke-width="2.5"/>

    <!-- Line for intersubjective gap -->
    <path d="M 0 228 L 5.23489932885906 228 L 10.46979865771812 228 L 15.70469798657718 199.7028566630128 L 20.93959731543624 199.7028566630128 L 26.174496644295303 199.7028566630128 L 31.40939597315436 185.32820518472442 L 36.644295302013425 185.32820518472442 L 41.87919463087248 185.32820518472442 L 47.11409395973155 177.50669295771206 L 52.348993288590606 177.50669295771206 L 57.58389261744967 177.50669295771206 L 62.81879194630872 177.50669295771206 L 68.05369127516778 170.66990888456803 L 73.28859060402685 170.66990888456803 L 78.5234899328859 170.66990888456803 L 83.75838926174497 165.87056481299484 L 88.99328859060402 165.87056481299484 L 94.2281879194631 165.87056481299484 L 99.46308724832215 162.30669295771204 L 104.69798657718121 162.30669295771204 L 109.93288590604026 162.30669295771204 L 115.16778523489934 162.30669295771204 L 120.40268456375838 158.6196660820034 L 125.63758389261744 158.6196660820034 L 130.87248322147653 158.6196660820034 L 136.10738255033556 155.72570996711522 L 141.34228187919462 155.72570996711522 L 146.5771812080537 155.72570996711522 L 151.81208053691276 153.41526294675052 L 157.0469798657718 153.41526294675052 L 162.28187919463087 153.41526294675052 L 167.51677852348993 153.41526294675052 L 172.751677852349 151.99999999999997 L 177.98657718120805 151.99999999999997 L 183.2214765100671 151.99999999999997 L 188.4563758389262 151.99999999999997 L 193.69127516778525 151.99999999999997 L 198.9261744966443 151.99999999999997 L 204.16107382550337 151.99999999999997 L 209.39597315436242 151.99999999999997 L 214.63087248322148 151.99999999999997 L 219.8657718120805 151.99999999999997 L 225.10067114093962 152.02839779840866 L 230.33557046979868 152.02839779840866 L 235.5704697986577 152.02839779840866 L 240.80536912751677 152.58544912581237 L 246.04026845637583 152.58544912581237 L 251.27516778523488 152.58544912581237 L 256.510067114094 152.8258005633504 L 261.74496644295306 152.8258005633504 L 266.97986577181206 152.8258005633504 L 272.2147651006711 152.8258005633504 L 277.4496644295302 154.2141081271037 L 282.68456375838923 154.2141081271037 L 287.91946308724835 154.2141081271037 L 293.1543624161074 156.07106809895575 L 298.38926174496646 156.07106809895575 L 303.6241610738255 156.07106809895575 L 308.8590604026846 157.4685170877499 L 314.0939597315436 157.4685170877499 L 319.3288590604027 157.4685170877499 L 324.56375838926175 157.4685170877499 L 329.7986577181208 159.01202894557267 L 335.03355704697987 159.01202894557267 L 340.2684563758389 159.01202894557267 L 345.503355704698 162.4311976280729 L 350.73825503355704 162.4311976280729 L 355.9731543624161 162.4311976280729 L 361.20805369127515 165.43046933039705 L 366.4429530201342 165.43046933039705 L 371.67785234899327 165.43046933039705 L 376.9127516778524 165.43046933039705 L 382.14765100671144 168.61130604054128 L 387.3825503355705 168.61130604054128 L 392.61744966442956 168.61130604054128 L 397.8523489932886 172.91928345037996 L 403.0872483221477 172.91928345037996 L 408.32214765100673 172.91928345037996 L 413.5570469798658 176.1916582789471 L 418.79194630872485 176.1916582789471 L 424.0268456375839 176.1916582789471 L 429.26174496644296 176.1916582789471 L 434.496644295302 177.85912777625296 L 439.731543624161 177.85912777625296 L 444.9664429530201 177.85912777625296 L 450.20134228187925 180.14963263061668 L 455.4362416107383 180.14963263061668 L 460.67114093959736 180.14963263061668 L 465.9060402684564 181.9125157465487 L 471.1409395973154 181.9125157465487 L 476.3758389261745 181.9125157465487 L 481.61073825503354 181.9125157465487 L 486.8456375838926 183.6963232064939 L 492.08053691275165 183.6963232064939 L 497.3154362416107 183.6963232064939 L 502.55033557046977 186.12691306827807 L 507.7852348993288 186.12691306827807 L 513.020134228188 186.12691306827807 L 518.255033557047 186.74071994728686 L 523.4899328859061 186.74071994728686 L 528.7248322147651 186.74071994728686 L 533.9597315436241 186.74071994728686 L 539.1946308724832 186.74071994728686 L 544.4295302013422 186.74071994728686 L 549.6644295302013 186.74071994728686 L 554.8993288590603 186.74071994728686 L 560.1342281879195 186.74071994728686 L 565.3691275167785 186.74071994728686 L 570.6040268456376 185.51310618926928 L 575.8389261744967 185.51310618926928 L 581.0738255033557 185.51310618926928 L 586.3087248322148 185.51310618926928 L 591.5436241610738 183.6963232064939 L 596.7785234899329 183.6963232064939 L 602.0134228187919 183.6963232064939 L 607.248322147651 181.31780766707317 L 612.48322147651 181.31780766707317 L 617.7181208053692 181.31780766707317 L 622.9530201342282 179.56920146419506 L 628.1879194630872 179.56920146419506 L 633.4228187919464 179.56920146419506 L 638.6577181208054 179.56920146419506 L 643.8926174496645 177.85912777625296 L 649.1275167785235 177.85912777625296 L 654.3624161073826 177.85912777625296 L 659.5973154362416 175.63565562441988 L 664.8322147651006 175.63565562441988 L 670.0671140939597 175.63565562441988 L 675.3020134228187 174.01458361794636 L 680.5369127516778 174.01458361794636 L 685.7718120805368 174.01458361794636 L 691.006711409396 174.01458361794636 L 696.2416107382551 172.4458755753364 L 701.4765100671141 172.4458755753364 L 706.7114093959732 172.4458755753364 L 711.9463087248322 170.43418216615513 L 717.1812080536913 170.43418216615513 L 722.4161073825503 170.43418216615513 L 727.6510067114094 168.99379178839234 L 732.8859060402684 168.99379178839234 L 738.1208053691275 168.99379178839234 L 743.3557046979865 168.99379178839234 L 748.5906040268455 168.1051556280495 L 753.8255033557048 168.1051556280495 L 759.0604026845638 168.1051556280495 L 764.2953020134229 168.1051556280495 L 769.5302013422819 168.1051556280495 L 774.765100671141 168.1051556280495 L 780 168.1051556280495" fill="none" stroke="#9B59B6" stroke-width="2" stroke-dasharray="5,3"/>

    <!-- Axis -->
    <line x1="0" y1="380" x2="780" y2="380" stroke="#2C3E50" stroke-width="2"/>
    <line x1="0" y1="0" x2="0" y2="380" stroke="#2C3E50" stroke-width="2"/>
    <text x="390" y="405" text-anchor="middle" class="axis-title">Observation Steps</text>
  </g>

  <!-- Legend -->
  <g transform="translate(720, 195)">
    <rect x="0" y="0" width="15" height="3" fill="#3498DB"/>
    <text x="20" y="5" class="legend-text">A sees B</text>
    <rect x="0" y="20" width="15" height="3" fill="#E74C3C"/>
    <text x="20" y="25" class="legend-text">B sees A</text>
    <rect x="0" y="40" width="15" height="3" fill="#9B59B6" stroke-dasharray="5,3"/>
    <text x="20" y="45" class="legend-text">Intersubjective</text>
  </g>

  <!-- Philosophical insight box -->
  <g transform="translate(50, 555)">
    <rect x="0" y="0" width="800" height="85" rx="8" fill="#F5EEF8" stroke="#9B59B6" stroke-width="1"/>
    <text x="20" y="22" class="subtitle" font-weight="bold" fill="#2C3E50">The Relational Hypothesis:</text>
    <text x="20" y="42" class="subtitle" fill="#2C3E50">Each agent sees what the other cannot see about itself.</text>
    <text x="20" y="60" class="subtitle" fill="#2C3E50">Consciousness may require an "other" to fully manifest.</text>
    <text x="20" y="78" class="quote">"You cannot collapse your own wave function."</text>
  </g>
</svg>